<?xml version="1.0" standalone="no"?>
<svg xmlns:xlink="http://www.w3.org/1999/xlink" id="wave" style="transform:rotate(180deg); transition: 0.3s" viewBox="0 0 1440 250" version="1.1" xmlns="http://www.w3.org/2000/svg"><defs><linearGradient id="sw-gradient-0" x1="0" x2="0" y1="1" y2="0"><stop stop-color="rgba(94, 162, 255, 1)" offset="0%"/><stop stop-color="rgba(255, 255, 255, 1)" offset="100%"/></linearGradient></defs><path style="transform:translate(0, 0px); opacity:1" fill="url(#sw-gradient-0)" d="M0,150L26.7,145.8C53.3,142,107,133,160,137.5C213.3,142,267,158,320,158.3C373.3,158,427,142,480,129.2C533.3,117,587,108,640,112.5C693.3,117,747,133,800,145.8C853.3,158,907,167,960,158.3C1013.3,150,1067,125,1120,104.2C1173.3,83,1227,67,1280,83.3C1333.3,100,1387,150,1440,141.7C1493.3,133,1547,67,1600,62.5C1653.3,58,1707,117,1760,129.2C1813.3,142,1867,108,1920,87.5C1973.3,67,2027,58,2080,50C2133.3,42,2187,33,2240,45.8C2293.3,58,2347,92,2400,125C2453.3,158,2507,192,2560,208.3C2613.3,225,2667,225,2720,212.5C2773.3,200,2827,175,2880,170.8C2933.3,167,2987,183,3040,166.7C3093.3,150,3147,100,3200,95.8C3253.3,92,3307,133,3360,145.8C3413.3,158,3467,142,3520,125C3573.3,108,3627,92,3680,70.8C3733.3,50,3787,25,3813,12.5L3840,0L3840,250L3813.3,250C3786.7,250,3733,250,3680,250C3626.7,250,3573,250,3520,250C3466.7,250,3413,250,3360,250C3306.7,250,3253,250,3200,250C3146.7,250,3093,250,3040,250C2986.7,250,2933,250,2880,250C2826.7,250,2773,250,2720,250C2666.7,250,2613,250,2560,250C2506.7,250,2453,250,2400,250C2346.7,250,2293,250,2240,250C2186.7,250,2133,250,2080,250C2026.7,250,1973,250,1920,250C1866.7,250,1813,250,1760,250C1706.7,250,1653,250,1600,250C1546.7,250,1493,250,1440,250C1386.7,250,1333,250,1280,250C1226.7,250,1173,250,1120,250C1066.7,250,1013,250,960,250C906.7,250,853,250,800,250C746.7,250,693,250,640,250C586.7,250,533,250,480,250C426.7,250,373,250,320,250C266.7,250,213,250,160,250C106.7,250,53,250,27,250L0,250Z"/></svg>