<?xml version="1.0" standalone="no"?>
<svg xmlns:xlink="http://www.w3.org/1999/xlink" id="wave" style="transform:rotate(0deg); transition: 0.3s" viewBox="0 0 1440 490" version="1.1" xmlns="http://www.w3.org/2000/svg"><defs><linearGradient id="sw-gradient-0" x1="0" x2="0" y1="1" y2="0"><stop stop-color="rgba(52.469, 158.532, 254.217, 1)" offset="0%"/><stop stop-color="rgba(255, 255, 255, 1)" offset="100%"/></linearGradient></defs><path style="transform:translate(0, 0px); opacity:1" fill="url(#sw-gradient-0)" d="M0,294L60,302.2C120,310,240,327,360,326.7C480,327,600,310,720,294C840,278,960,261,1080,269.5C1200,278,1320,310,1440,285.8C1560,261,1680,180,1800,122.5C1920,65,2040,33,2160,73.5C2280,114,2400,229,2520,269.5C2640,310,2760,278,2880,245C3000,212,3120,180,3240,179.7C3360,180,3480,212,3600,253.2C3720,294,3840,343,3960,359.3C4080,376,4200,359,4320,334.8C4440,310,4560,278,4680,236.8C4800,196,4920,147,5040,106.2C5160,65,5280,33,5400,24.5C5520,16,5640,33,5760,81.7C5880,131,6000,212,6120,212.3C6240,212,6360,131,6480,114.3C6600,98,6720,147,6840,138.8C6960,131,7080,65,7200,98C7320,131,7440,261,7560,285.8C7680,310,7800,229,7920,228.7C8040,229,8160,310,8280,334.8C8400,359,8520,327,8580,310.3L8640,294L8640,490L8580,490C8520,490,8400,490,8280,490C8160,490,8040,490,7920,490C7800,490,7680,490,7560,490C7440,490,7320,490,7200,490C7080,490,6960,490,6840,490C6720,490,6600,490,6480,490C6360,490,6240,490,6120,490C6000,490,5880,490,5760,490C5640,490,5520,490,5400,490C5280,490,5160,490,5040,490C4920,490,4800,490,4680,490C4560,490,4440,490,4320,490C4200,490,4080,490,3960,490C3840,490,3720,490,3600,490C3480,490,3360,490,3240,490C3120,490,3000,490,2880,490C2760,490,2640,490,2520,490C2400,490,2280,490,2160,490C2040,490,1920,490,1800,490C1680,490,1560,490,1440,490C1320,490,1200,490,1080,490C960,490,840,490,720,490C600,490,480,490,360,490C240,490,120,490,60,490L0,490Z"/></svg>